<?xml version="1.0" encoding="UTF-8"?>
<svg version="1.1" xmlns="http://www.w3.org/2000/svg" width="297" height="258">
<path d="M0 0 C98.01 0 196.02 0 297 0 C294.98757265 4.0248547 292.55914867 7.03229898 289.625 10.375 C288.53374492 11.63271772 287.44260218 12.89053292 286.3515625 14.1484375 C285.7937207 14.7887793 285.23587891 15.42912109 284.66113281 16.08886719 C282.09129913 19.04546008 279.54623245 22.02308668 277 25 C276.00013425 26.16678172 275.00013383 27.33344806 274 28.5 C273.2575 29.36625 273.2575 29.36625 272.5 30.25 C271 32 269.5 33.75 268 35.5 C267.50467773 36.07790283 267.00935547 36.65580566 266.49902344 37.2512207 C265.50238594 38.41391034 264.50564173 39.57650851 263.50878906 40.73901367 C260.9564448 43.71577489 258.40616679 46.69426757 255.859375 49.67578125 C255.33859375 50.28486328 254.8178125 50.89394531 254.28125 51.52148438 C253.30657944 52.66150083 252.33254985 53.80206584 251.359375 54.94335938 C250.45398353 56.00179287 249.53586441 57.04949064 248.60447693 58.08512211 C246.93691984 59.99605551 246.93691984 59.99605551 245.5294342 62.26966763 C242.66995401 66.27388028 240.48550147 68.64257087 235.60574341 69.81669807 C231.29858262 70.10943719 227.07402405 70.11502245 222.76171875 70.02172852 C221.11524089 70.01918718 219.46875284 70.02062008 217.82228088 70.02571106 C213.36951522 70.02828579 208.91894654 69.9755039 204.46669006 69.91254544 C199.80766036 69.85615275 195.14857615 69.8509867 190.48925781 69.84031677 C181.67400594 69.81238148 172.85976269 69.73857904 164.0449543 69.64817137 C154.00640857 69.54745517 143.96781379 69.49806077 133.92888832 69.45291245 C113.28523811 69.3589247 92.64296998 69.19392564 72 69 C72 82.86 72 96.72 72 111 C120.18 111 168.36 111 218 111 C211.32116788 119.90510949 211.32116788 119.90510949 207.6875 123.8125 C204.52623398 127.26980431 201.50293164 130.79053355 198.5625 134.4375 C194.70058325 139.21284402 190.62325776 143.73667685 186.46484375 148.25390625 C184.07292703 150.91875166 181.80745116 153.64831825 179.5625 156.4375 C178.85648148 157.2820575 178.15046295 158.12661499 177.42304993 158.99676514 C174.96474171 161.95566598 174.96474171 161.95566598 172.89347839 165.12701416 C169.10424351 170.19406657 165.93747153 173.99687193 159.46328735 175.05090332 C153.90662559 175.54068947 148.3684094 175.35179297 142.80078125 175.171875 C140.75389101 175.14945926 138.70693585 175.13239389 136.65995789 175.12042236 C131.30378625 175.07486783 125.95159615 174.95724209 120.59698486 174.82397461 C114.1557163 174.67890153 107.71310687 174.62440882 101.27066803 174.55453491 C91.51102005 174.43863805 81.76008553 174.20860662 72 174 C72 188.85 72 203.7 72 219 C68.844375 220.711875 65.68875 222.42375 62.4375 224.1875 C54.4828341 228.51724731 46.56628669 232.90870765 38.6875 237.375 C37.29192871 238.16559814 37.29192871 238.16559814 35.86816406 238.97216797 C31.77350475 241.29275375 27.67949371 243.61448061 23.5859375 245.93701172 C20.1227347 247.90073082 16.65516116 249.8566644 13.1875 251.8125 C12.10106201 252.4297998 11.01462402 253.04709961 9.89526367 253.68310547 C8.89213135 254.24787598 7.88899902 254.81264648 6.85546875 255.39453125 C5.51971802 256.15020386 5.51971802 256.15020386 4.15698242 256.92114258 C2 258 2 258 0 258 C0 172.86 0 87.72 0 0 Z " fill="#8A46FA" transform="translate(0,0)"/>
<path d="M0 0 C0 13.86 0 27.72 0 42 C-23.76 42 -47.52 42 -72 42 C-68.75852679 39.40682144 -66.1970896 37.40184993 -62.69140625 35.44140625 C-61.87357666 34.98000244 -61.05574707 34.51859863 -60.21313477 34.04321289 C-59.33842529 33.55457764 -58.46371582 33.06594238 -57.5625 32.5625 C-50.01888463 28.30049229 -42.515646 23.98091632 -35.0625 19.5625 C-34.16700439 19.03253418 -33.27150879 18.50256836 -32.34887695 17.95654297 C-27.49035012 15.07828316 -22.63950688 12.18746013 -17.79296875 9.2890625 C-16.78161865 8.68634521 -15.77026855 8.08362793 -14.72827148 7.46264648 C-12.77633276 6.29922764 -10.82654009 5.13219895 -8.87915039 3.96118164 C-7.56998657 3.18182251 -7.56998657 3.18182251 -6.234375 2.38671875 C-5.07760254 1.69388794 -5.07760254 1.69388794 -3.89746094 0.98706055 C-2 0 -2 0 0 0 Z " fill="#442081" transform="translate(238,160)"/>
</svg>
